<?xml version="1.0" standalone="no"?>
<!DOCTYPE svg PUBLIC "-//W3C//DTD SVG 20010904//EN"
 "http://www.w3.org/TR/2001/REC-SVG-20010904/DTD/svg10.dtd">
<svg version="1.0" xmlns="http://www.w3.org/2000/svg"
 width="368.000000pt" height="368.000000pt" viewBox="0 0 368.000000 368.000000"
 preserveAspectRatio="xMidYMid meet">
<metadata>
Created by potrace 1.11, written by Peter Selinger 2001-2013
</metadata>
<g transform="translate(0.000000,368.000000) scale(0.100000,-0.100000)"
fill="#000000" stroke="none">
<path d="M1805 3662 c-17 -8 -291 -166 -610 -350 -319 -184 -593 -341 -610
-350 -16 -9 -37 -22 -45 -28 -8 -7 -37 -24 -65 -39 -127 -68 -210 -122 -221
-142 -7 -16 -10 -284 -10 -921 1 -760 3 -902 15 -916 14 -16 78 -56 205 -126
33 -18 99 -57 149 -86 49 -30 91 -54 92 -54 1 0 54 -30 116 -66 63 -37 134
-78 158 -92 25 -14 68 -38 95 -55 28 -16 65 -38 82 -47 16 -10 88 -51 160 -92
71 -41 149 -86 174 -100 25 -14 107 -62 184 -107 76 -44 150 -81 163 -81 23 0
162 77 633 350 69 40 141 81 160 92 19 11 125 72 235 136 110 64 213 123 228
131 16 9 36 21 45 26 10 6 74 43 144 83 70 41 133 81 140 89 10 13 13 197 13
902 1 487 -2 899 -5 916 -6 31 -37 57 -140 113 -30 16 -122 69 -205 117 -82
48 -170 99 -195 113 -25 14 -139 80 -255 147 -419 243 -755 436 -778 444 -15
6 -32 4 -52 -7z"/>
</g>
</svg>
